<svg version="1.1" id="Layer_1" xmlns="http://www.w3.org/2000/svg" xmlns:xlink="http://www.w3.org/1999/xlink" x="0px" y="0px"
	 viewBox="0 0 120.5 120.7" style="enable-background:new 0 0 120.5 120.7;" xml:space="preserve">
<style type="text/css">
	.st0{fill-rule:evenodd;clip-rule:evenodd;fill:#00758F;}
</style>
<path class="st0" d="M30.2,24.2c-1.3,0-2.2,0.2-3.1,0.4v0.2h0.1c0.6,1.2,1.7,2.1,2.4,3.1c0.6,1.2,1.1,2.4,1.8,3.7
	c0.1-0.1,0.1-0.2,0.1-0.2c1.1-0.8,1.6-2,1.6-3.8c-0.5-0.5-0.5-1.1-0.9-1.6C31.8,25.2,30.8,24.8,30.2,24.2"/>
<path class="st0" d="M107.9,90.4c-6.1-0.2-10.8,0.5-14.8,2.1C92,93,90.2,93,90,94.4c0.6,0.6,0.7,1.6,1.2,2.4c0.9,1.5,2.5,3.6,4,4.6
	c1.6,1.2,3.2,2.4,4.9,3.5c3,1.8,6.3,2.9,9.2,4.7c1.7,1.1,3.4,2.4,5,3.6c0.8,0.6,1.4,1.6,2.4,2V115c-0.5-0.7-0.7-1.7-1.2-2.4
	c-0.8-0.8-7.2-7.8-10.2-9.9c-2.4-1.7-7.8-4-8.8-6.8c0,0-0.1-0.1-0.2-0.2c1.7-0.2,3.7-0.8,5.3-1.2c2.6-0.7,4.9-0.5,7.6-1.2
	c1.2-0.3,2.4-0.7,3.7-1.1v-0.7c-1.4-1.4-2.4-3.2-3.8-4.5c-3.9-3.3-8.1-6.6-12.6-9.4c-2.4-1.5-5.4-2.5-7.9-3.8
	c-0.9-0.5-2.4-0.7-3-1.4c-1.4-1.7-2.1-3.9-3.1-5.9c-2.2-4.2-4.3-8.8-6.2-13.2c-1.4-3-2.2-5.9-3.9-8.7C64.6,31.8,56,23.9,42.9,16.2
	c-2.8-1.6-6.2-2.3-9.7-3.1c-1.9-0.1-3.8-0.2-5.7-0.3c-1.2-0.5-2.4-2-3.5-2.7C19.6,7.4,8.5,1.5,5.3,9.3c-2.1,5,3,9.8,4.8,12.3
	c1.3,1.7,3,3.7,3.9,5.7c0.5,1.3,0.7,2.7,1.2,4c1.2,3.3,2.4,7.1,4,10.2c0.8,1.6,1.7,3.3,2.8,4.7c0.6,0.8,1.7,1.2,1.9,2.6
	c-1.1,1.5-1.1,3.8-1.8,5.7c-2.7,8.6-1.7,19.3,2.2,25.6c1.2,1.9,4.1,6.1,8,4.5c3.4-1.4,2.7-5.7,3.7-9.5c0.2-0.9,0.1-1.5,0.5-2.1v0.2
	c1.1,2.1,2.1,4.2,3.1,6.3c2.7,5.4,13.2,13.9,15.5,14.8c0,0-4.8-4.8-5.9-6.3c-3.2-4.3-6-9-8.5-13.9c-1.2-2.4-2.3-5-3.3-7.3
	c-0.5-0.9-0.5-2.3-1.2-2.7c-1.1,1.7-2.8,3.1-3.7,5.2c-1.4,3.3-1.6,7.3-2.1,11.5c-0.3,0.1-0.2,0-0.3,0.2c-2.4-0.6-3.3-3.1-4.2-5.2
	c-2.3-5.4-2.7-14.1-0.7-20.3c0.5-1.6,2.8-6.6,1.9-8.1c-0.5-1.5-2-2.3-2.8-3.4c-1-1.4-2.1-3.3-2.7-4.9c-1.8-4.3-2.7-9-4.7-13.2
	c-0.9-2-2.5-4-3.8-5.9c-1.5-2.1-3-3.5-4.2-5.9c-0.4-0.8-0.9-2.2-0.3-3.1c0.2-0.6,0.5-0.8,1.1-1c1-0.8,3.8,0.2,4.8,0.7
	c2.8,1.1,5.2,2.2,7.5,3.8c1.1,0.8,2.2,2.2,3.6,2.6h1.6c2.4,0.5,5.2,0.1,7.5,0.8c4,1.3,7.7,3.2,11,5.3c10,6.3,18.2,15.3,23.8,26
	c0.9,1.7,1.3,3.3,2.1,5.2c1.6,3.7,3.6,7.5,5.2,11.2c1.6,3.6,3.1,7.2,5.4,10.2c1.1,1.6,5.7,2.4,7.8,3.3c1.5,0.7,3.9,1.3,5.3,2.1
	c2.6,1.6,5.2,3.4,7.6,5.2C103.9,87,107.7,88.9,107.9,90.4"/>
</svg>